<!DOCTYPE svg PUBLIC "-//W3C//DTD SVG 1.1//EN" "http://www.w3.org/Graphics/SVG/1.1/DTD/svg11.dtd">
<!-- Uploaded to: SVG Repo, www.svgrepo.com, Transformed by: SVG Repo Mixer Tools -->
<svg fill="#FFFFFF" height="60px" width="60px" version="1.1" id="Layer_1" xmlns="http://www.w3.org/2000/svg" xmlns:xlink="http://www.w3.org/1999/xlink" viewBox="0 0 512 512" xml:space="preserve">
<g id="SVGRepo_bgCarrier" stroke-width="0"/>
<g id="SVGRepo_tracerCarrier" stroke-linecap="round" stroke-linejoin="round"/>

<g>
           
            <path d="M487.95,274.706h-35.808V179.04c0-13.261-10.789-24.05-24.05-24.05h-112.59V62.53c0-4.428-3.588-8.017-8.017-8.017H8.017 C3.588,54.514,0,58.102,0,62.53v169.954c0,4.428,3.588,8.017,8.017,8.017c4.428,0,8.017-3.588,8.017-8.017V70.547h283.435 l-0.026,289.67H191.089c-10.223-27.435-36.679-47.031-67.632-47.031s-57.409,19.596-67.632,47.031H16.033v-76.426 c0-4.428-3.588-8.017-8.017-8.017c-4.428,0-8.017,3.588-8.017,8.017v111.165c0,13.261,10.789,24.05,24.05,24.05h35.622 c12.118,22.863,36.156,38.48,63.785,38.48c27.629,0,51.667-15.618,63.785-38.48h55.931c4.428,0,8.017-3.588,8.017-8.017 c0-4.428-3.588-8.017-8.017-8.017h-49.755c2.2-8.723,2.724-17.8,1.597-26.722h109.143c-1.128,8.922-0.603,17.999,1.597,26.722 h-19.826c-4.428,0-8.017,3.588-8.017,8.017c0,4.428,3.588,8.017,8.017,8.017h26.002c12.118,22.863,36.156,38.48,63.785,38.48 s51.667-15.618,63.785-38.48h48.449c13.261,0,24.05-10.789,24.05-24.05v-96.2C512,285.495,501.211,274.706,487.95,274.706z M24.05,402.973c-4.421,0-8.017-3.596-8.017-8.017v-18.706h35.866c-1.128,8.922-0.603,17.999,1.597,26.722H24.05z M123.457,441.453 c-30.942,0-56.117-25.175-56.117-56.117s25.175-56.117,56.117-56.117s56.117,25.175,56.117,56.117S154.4,441.453,123.457,441.453z M375.716,441.453c-30.942,0-56.117-25.175-56.117-56.117s25.175-56.117,56.117-56.117s56.117,25.175,56.117,56.117 S406.658,441.453,375.716,441.453z M495.967,394.956c0,4.421-3.596,8.017-8.017,8.017h-42.273c2.2-8.723,2.724-17.8,1.597-26.722h48.692V394.956z M495.967,360.217h-52.618c-10.223-27.435-36.679-47.031-67.632-47.031c-25.132,0-47.291,12.924-60.214,32.466V171.023h112.59 c4.421,0,8.017,3.596,8.017,8.017v103.683c0,4.428,3.588,8.017,8.017,8.017h43.825c4.421,0,8.017,3.596,8.017,8.017V360.217z"/>
          </g>
<g id="SVGRepo_iconCarrier"> <g> <g> <path d="M487.95,274.706h-35.808V179.04c0-13.261-10.789-24.05-24.05-24.05h-112.59V62.53c0-4.428-3.588-8.017-8.017-8.017H8.017 C3.588,54.514,0,58.102,0,62.53v169.954c0,4.428,3.588,8.017,8.017,8.017c4.428,0,8.017-3.588,8.017-8.017V70.547h283.435 l-0.026,289.67H191.089c-10.223-27.435-36.679-47.031-67.632-47.031s-57.409,19.596-67.632,47.031H16.033v-76.426 c0-4.428-3.588-8.017-8.017-8.017c-4.428,0-8.017,3.588-8.017,8.017v111.165c0,13.261,10.789,24.05,24.05,24.05h35.622 c12.118,22.863,36.156,38.48,63.785,38.48c27.629,0,51.667-15.618,63.785-38.48h55.931c4.428,0,8.017-3.588,8.017-8.017 c0-4.428-3.588-8.017-8.017-8.017h-49.755c2.2-8.723,2.724-17.8,1.597-26.722h109.143c-1.128,8.922-0.603,17.999,1.597,26.722 h-19.826c-4.428,0-8.017,3.588-8.017,8.017c0,4.428,3.588,8.017,8.017,8.017h26.002c12.118,22.863,36.156,38.48,63.785,38.48 s51.667-15.618,63.785-38.48h48.449c13.261,0,24.05-10.789,24.05-24.05v-96.2C512,285.495,501.211,274.706,487.95,274.706z M24.05,402.973c-4.421,0-8.017-3.596-8.017-8.017v-18.706h35.866c-1.128,8.922-0.603,17.999,1.597,26.722H24.05z M123.457,441.453c-30.942,0-56.117-25.175-56.117-56.117s25.175-56.117,56.117-56.117s56.117,25.175,56.117,56.117 S154.4,441.453,123.457,441.453z M375.716,441.453c-30.942,0-56.117-25.175-56.117-56.117s25.175-56.117,56.117-56.117 s56.117,25.175,56.117,56.117S406.658,441.453,375.716,441.453z M495.967,394.956c0,4.421-3.596,8.017-8.017,8.017h-42.273 c2.2-8.723,2.724-17.8,1.597-26.722h48.692V394.956z M495.967,360.217h-52.618c-10.223-27.435-36.679-47.031-67.632-47.031 c-25.132,0-47.291,12.924-60.214,32.466V171.023h112.59c4.421,0,8.017,3.596,8.017,8.017v103.683c0,4.428,3.588,8.017,8.017,8.017 h43.825c4.421,0,8.017,3.596,8.017,8.017V360.217z"/> </g> </g> <g> <g> <path d="M414.196,180.643h-76.96c-4.428,0-8.017,3.588-8.017,8.017v68.409c0,4.428,3.588,8.017,8.017,8.017h76.96 c4.428,0,8.017-3.588,8.017-8.017V188.66C422.213,184.231,418.625,180.643,414.196,180.643z M406.18,249.052h-60.927v-52.376 h60.927V249.052z"/> </g> </g> <g> <g> <path d="M354.338,274.706H332.96c-4.428,0-8.017,3.588-8.017,8.017c0,4.428,3.588,8.017,8.017,8.017h21.378 c4.428,0,8.017-3.588,8.017-8.017C362.355,278.294,358.767,274.706,354.338,274.706z"/> </g> </g> <g> <g> <path d="M123.457,347.39c-20.924,0-37.946,17.022-37.946,37.946s17.022,37.946,37.946,37.946s37.946-17.022,37.946-37.946 S144.381,347.39,123.457,347.39z M123.457,407.248c-12.083,0-21.912-9.83-21.912-21.912s9.83-21.912,21.912-21.912 s21.912,9.83,21.912,21.912S135.54,407.248,123.457,407.248z"/> </g> </g> <g> <g> <path d="M375.716,347.39c-20.924,0-37.946,17.022-37.946,37.946s17.022,37.946,37.946,37.946 c20.924,0,37.946-17.022,37.946-37.946S396.64,347.39,375.716,347.39z M375.716,407.248c-12.083,0-21.912-9.83-21.912-21.912 s9.83-21.912,21.912-21.912s21.912,9.83,21.912,21.912S387.799,407.248,375.716,407.248z"/> </g> </g> <g> <g> <path d="M260.169,165.778l-98.338-59.858c-2.56-1.56-5.776-1.56-8.336,0l-98.338,59.858c-3.07,1.868-4.52,5.552-3.551,9.013 c0.971,3.461,4.125,5.852,7.719,5.852H76.96v103.148c0,4.428,3.588,8.017,8.017,8.017h145.37c4.428,0,8.017-3.588,8.017-8.017 V180.643H256c3.594,0,6.748-2.391,7.72-5.852C264.689,171.331,263.239,167.646,260.169,165.778z M171.023,275.775h-26.722v-52.376 h26.722V275.775z M222.33,172.626v103.148h-35.273v-60.392c0-4.428-3.588-8.017-8.017-8.017h-42.756 c-4.428,0-8.017,3.588-8.017,8.017v60.392H92.994V172.626c0-3.607-2.383-6.658-5.66-7.665l70.328-42.808l70.328,42.808 C224.712,165.967,222.33,169.019,222.33,172.626z"/> </g> </g> <g> <g> <path d="M166.213,173.161h-17.102c-4.428,0-8.017,3.588-8.017,8.017c0,4.428,3.588,8.017,8.017,8.017h17.102 c4.428,0,8.017-3.588,8.017-8.017C174.23,176.749,170.641,173.161,166.213,173.161z"/> </g> </g> <g> <g> <path d="M166.213,147.507h-17.102c-4.428,0-8.017,3.588-8.017,8.017c0,4.428,3.588,8.017,8.017,8.017h17.102 c4.428,0,8.017-3.588,8.017-8.017C174.23,151.096,170.641,147.507,166.213,147.507z"/> </g> </g> </g>
</svg>